<svg width="184" height="45" viewBox="0 0 184 45" fill="none" xmlns="http://www.w3.org/2000/svg">
<g clip-path="url(#clip0_10_10)">
<path d="M3.22466 38.9095L0 44.9612V11.9871C0 5.35345 5.36149 0 12.0051 0H44.9899C35.6267 2.90948 25.875 9.46552 19.4257 16.9526C12.3159 25.1379 8.31419 30.7629 3.22466 38.9095Z" fill="white"/>
<path d="M45.0287 0C45.0287 0 30.6537 6.71121 26.2635 16.7974C23.9324 22.1897 23.3497 28.6681 19.1149 32.7414C16.201 35.5345 12.1216 36.5819 8.5473 38.4052C6.21622 39.6078 1.86486 42.4784 0 45.0388H33.0236C39.6672 45.0388 45.0287 39.6853 45.0287 33.0517V0ZM61.6959 23.5474V15.0129C61.6959 14.819 61.8513 14.6638 62.0456 14.6638H67.4459C68.4561 14.6638 69.3108 15.0905 69.3108 16.5259V23.2759C69.3108 24.3233 68.4561 25.1379 67.4459 25.1379H63.2111C62.3953 25.0216 61.7348 24.3621 61.6959 23.5474V23.5474ZM59.9476 12.0647C59.3649 12.0647 58.9375 12.4914 58.9375 13.0345V35.3793H61.3074C61.5017 35.3793 61.6571 35.2241 61.6571 35.0302V26.7284C62.0456 27.2328 62.8226 27.7371 63.7939 27.7371H67.4071C69.9324 27.7371 71.9915 25.9526 71.9915 23.3147V16.4871C71.9915 13.3836 69.9324 12.0647 67.4071 12.0647H59.9476V12.0647ZM75.8767 12.0647V27.3879C75.8767 27.5819 76.0321 27.7371 76.2263 27.7371H78.5963V12.375C78.5963 12.181 78.4409 12.0647 78.2466 12.0647H75.8767V12.0647ZM75.8767 5.0431V7.60345C75.8767 7.79741 76.0321 7.95259 76.2263 7.95259H78.5963V5.39224C78.5963 5.19828 78.4409 5.0431 78.2466 5.0431H75.8767ZM85.2787 18.194V16.4871C85.2787 15.2457 86.0946 14.625 87.1436 14.625H91.4561C92.6993 14.625 93.2821 15.2069 93.2821 16.4871V18.194C93.2821 18.3879 93.1267 18.5431 92.9324 18.5431H85.6284C85.3953 18.5043 85.2787 18.3491 85.2787 18.194V18.194ZM87.1436 12.0647C84.6182 12.0647 82.5591 13.6164 82.5591 16.5259V23.1595C82.5591 25.681 84.5794 27.7371 87.1436 27.7371H95.2635V25.4871C95.2635 25.2931 95.1081 25.1379 94.9138 25.1379H87.1436C86.0946 25.1379 85.2787 24.3233 85.2787 23.2759V20.4828C85.5507 20.8707 86.0169 21.0647 86.5219 21.0647H95.1081C95.8463 21.0647 95.924 20.6379 95.924 20.0948V16.4871C95.924 13.5776 93.9037 12.0259 91.3395 12.0259H87.1436V12.0647ZM102.218 23.2759V16.5259C102.218 15.4784 103.034 14.6638 104.083 14.6638H108.318C109.095 14.7414 109.755 15.4009 109.833 16.2543V24.7888C109.833 24.9828 109.677 25.0991 109.483 25.0991H104.083C103.034 25.1379 102.218 24.3233 102.218 23.2759ZM110.144 4.22845C109.949 4.22845 109.794 4.38362 109.794 4.57759V13.0733C109.405 12.5302 108.628 12.0647 107.618 12.0647H103.966C101.441 12.0647 99.4594 14.0819 99.4594 16.6422V23.1595C99.4594 25.681 101.48 27.7371 104.044 27.7371H111.503C112.086 27.7371 112.514 27.3103 112.514 26.7284V4.22845H110.144V4.22845ZM120.517 23.5474V15.0129C120.517 14.819 120.672 14.6638 120.867 14.6638H126.228C127.238 14.6638 128.093 15.0905 128.093 16.5259V23.2759C128.093 24.3233 127.238 25.1379 126.228 25.1379H121.993C121.177 25.0216 120.556 24.3621 120.517 23.5474V23.5474ZM118.769 12.0647C118.186 12.0647 117.758 12.4914 117.758 13.0345V35.3793H120.128C120.323 35.3793 120.478 35.2241 120.478 35.0302V26.7284C120.867 27.2328 121.644 27.7371 122.615 27.7371H126.228C128.753 27.7371 130.812 25.9526 130.812 23.3147V16.4871C130.812 13.3836 128.753 12.0647 126.228 12.0647H118.769V12.0647ZM134.698 12.0647V27.3879C134.698 27.5819 134.853 27.7371 135.047 27.7371H137.417V12.375C137.417 12.181 137.262 12.0647 137.068 12.0647H134.698V12.0647ZM134.698 5.0431V7.60345C134.698 7.79741 134.853 7.95259 135.047 7.95259H137.417V5.39224C137.417 5.19828 137.262 5.0431 137.068 5.0431H134.698ZM144.177 23.5474V15.0129C144.177 14.819 144.333 14.6638 144.527 14.6638H149.927C150.937 14.6638 151.792 15.0905 151.792 16.5259V23.2759C151.792 24.3233 150.937 25.1379 149.927 25.1379H145.693C144.877 25.0216 144.255 24.3621 144.177 23.5474V23.5474ZM142.468 12.0647C141.885 12.0647 141.458 12.4914 141.458 13.0345V35.3793H143.828C144.022 35.3793 144.177 35.2241 144.177 35.0302V26.7284C144.566 27.2328 145.343 27.7371 146.314 27.7371H149.927C152.453 27.7371 154.512 25.9526 154.512 23.3147V16.4871C154.512 13.3836 152.453 12.0647 149.927 12.0647H142.468V12.0647ZM161 18.194V16.4871C161 15.2457 161.816 14.625 162.865 14.625H167.177C168.382 14.625 169.003 15.2069 169.003 16.4871V18.194C169.003 18.3879 168.848 18.5431 168.654 18.5431H161.35C161.117 18.5043 161 18.3491 161 18.194V18.194ZM162.865 12.0647C160.34 12.0647 158.28 13.6164 158.28 16.5259V23.1595C158.28 25.681 160.301 27.7371 162.865 27.7371H170.985V25.4871C170.985 25.2931 170.829 25.1379 170.635 25.1379H162.865C161.816 25.1379 161 24.3233 161 23.2759V20.4828C161.272 20.8707 161.738 21.0647 162.204 21.0647H170.791C171.529 21.0647 171.606 20.6379 171.606 20.0948V16.4871C171.606 13.5776 169.586 12.0259 167.022 12.0259H162.865V12.0647ZM180.309 12.0647C179.338 12.0647 178.561 12.5302 178.172 13.0733V12.375C178.172 12.181 178.017 12.0647 177.823 12.0647H175.453V27.3879C175.453 27.5819 175.608 27.7371 175.802 27.7371H178.172V16.0991C178.25 15.3621 178.833 14.7026 179.687 14.7026H183.611C183.806 14.7026 183.961 14.5474 183.961 14.3534V12.1034H180.309V12.0647Z" fill="white"/>
</g>
<defs>
<clipPath id="clip0_10_10">
<rect width="184" height="45" fill="white"/>
</clipPath>
</defs>
</svg>
